<svg id="Layer_1" data-name="Layer 1" xmlns="http://www.w3.org/2000/svg" viewBox="0 0 61.06 72"><defs><style>.cls-1,.cls-3{fill:#fff;}.cls-1{stroke:#fff;stroke-miterlimit:10;}.cls-2{fill:#ed1c24;}</style></defs><title>Artboard 2</title><path class="cls-1" d="M59.49,39.94a9.26,9.26,0,0,0-1.42-4.27,28.74,28.74,0,0,0-2.76-3.31l-.07-.08-.07-.07L56,31.1a.86.86,0,0,0,.17-.72c-.09-.4-.43-1-2.37-2.2-1.3-.8-3-1.7-5.06-2.74-3-1.54-6.49-3.35-9.66-5.42,1.74-1,3.77-2,6.37-3.26l.26-.13,0-.29c1.14-8.7-3.38-13.58-8.05-14.43a8.08,8.08,0,0,0-1.43-.13h0a6.92,6.92,0,0,0-4.52,1.57l-.12.1L30.36,4.61l-.63.6L6.1,27.55,4.46,29.11l-1,.92,0,0,0,0a7.83,7.83,0,0,0-1.9,5.27,8.71,8.71,0,0,0,.57,3.12,10,10,0,0,0,1.7,2.84,15.6,15.6,0,0,0,2.8,2.55,27.32,27.32,0,0,0,3.9,2.31c5.08,2.51,11.46,4.16,16.58,5.49,2.54.66,4.73,1.23,6.35,1.79a14.8,14.8,0,0,1,1.49.59l-.57.72-.42.52-.06.08a.69.69,0,0,0-.1.55c.11.46.65.77,1.39,1.19.28.16.57.32.79.48a35.84,35.84,0,0,1,3.42,2.57l0,0-3.29,4.5-.57.79h0a1.23,1.23,0,0,0-.28,1,4.65,4.65,0,0,0,1.91,2.42l.44.34.32-.46,1-1.41a4.27,4.27,0,0,0,2.67,1.45,2,2,0,0,0,.63-.1,1.28,1.28,0,0,0,.54-.35l.05-.06a1.5,1.5,0,0,0,.2-.31l.69-1.07L58.76,43.23C59.62,42.51,59.56,40.7,59.49,39.94Z"/><path class="cls-2" d="M36.17,54.93a.4.4,0,0,1,0,.38c-.08.16-.16.26-.25.29s-.44-.12-.69-.27a3.29,3.29,0,0,0-.45-.25l.65-.81A1.76,1.76,0,0,1,36.17,54.93Z"/><path class="cls-2" d="M55.61,30.49c-.09-.42-.8-1-2.12-1.85s-3-1.68-5-2.72a109.74,109.74,0,0,1-9.93-5.6l-.23.13a43.73,43.73,0,0,0-7.52,5.27A34.37,34.37,0,0,0,25.27,32a48.77,48.77,0,0,0-4.33,7.82l-.77,1.71-.24-1.86a15.64,15.64,0,0,0-3.83-9,8.9,8.9,0,0,0-6.39-2.82H9.34a8.06,8.06,0,0,0-2.68.58l-1.25.51-.57.54-1,.93a7.27,7.27,0,0,0-1.77,4.92c0,4.07,2.84,7.46,8.68,10.34,5,2.49,11.38,4.13,16.48,5.46s8.8,2.28,9.42,3.56l18-22.61.91-1.29A.33.33,0,0,0,55.61,30.49Z"/><path class="cls-2" d="M57.64,36a28.15,28.15,0,0,0-2.71-3.25l-.07-.08L36.63,55.56a1,1,0,0,1-.57.54,1.45,1.45,0,0,1-1.12-.33c-.18-.11-.51-.31-.62-.13-.25.37,1.14.93,1.94,1.48a32.77,32.77,0,0,1,3.88,3,10.47,10.47,0,0,1,2.38,3.68,8.67,8.67,0,0,1,.66,2.85L58.37,42.86h0C59.39,42.12,59.17,38.24,57.64,36Z"/><path class="cls-2" d="M37.43,68.47c-.66-.5-1.6-1.36-1.71-2.07a.8.8,0,0,1,.67-.88c.52,0,1.22.64,1.95,1.35l.12.12Z"/><path class="cls-2" d="M42,68.2c-1.12.38-2.27-.73-3.28-1.71-.81-.78-1.5-1.46-2.21-1.5l3.29-4.5A9.88,9.88,0,0,1,42,64a6.56,6.56,0,0,1,.57,3.41A1,1,0,0,1,42,68.2Z"/><path class="cls-2" d="M30.09,5.59s1.21-1.16,2-1.81a6.7,6.7,0,0,1,5.51-1.32c4.45.81,8.71,5.48,7.62,13.83-2.43,1.17-4.63,2.28-6.64,3.41L38,20a44.45,44.45,0,0,0-7.61,5.34,34.89,34.89,0,0,0-5.59,6.34,49.35,49.35,0,0,0-4.38,7.91,16.11,16.11,0,0,0-4-9.28,9.37,9.37,0,0,0-7.16-3,8.64,8.64,0,0,0-2.85.61Z"/><path class="cls-3" d="M8.33,53.07c0-1.17.63-1.82,1.42-1.43a3.41,3.41,0,0,1,1.45,2.88c0,1.2-.65,1.83-1.45,1.41A3.44,3.44,0,0,1,8.33,53.07Z"/><path class="cls-2" d="M9.31,51.53a1,1,0,0,1,.44.11,3.41,3.41,0,0,1,1.45,2.88c0,.95-.41,1.54-1,1.54a1,1,0,0,1-.47-.13,3.44,3.44,0,0,1-1.42-2.86c0-.94.41-1.54,1-1.54m0-.53h0a1.35,1.35,0,0,0-1.15.66,2.6,2.6,0,0,0-.36,1.41,4.5,4.5,0,0,0,.47,2,3.06,3.06,0,0,0,1.24,1.38,1.56,1.56,0,0,0,.72.19,1.35,1.35,0,0,0,1.15-.66,2.6,2.6,0,0,0,.36-1.42A3.91,3.91,0,0,0,10,51.16,1.54,1.54,0,0,0,9.31,51Z"/><path class="cls-3" d="M48.92,13.61a.19.19,0,0,0-.22.21L9.54,50.94l.21.08.27.16a3.94,3.94,0,0,1,1.71,3.34,3.45,3.45,0,0,1,0,.43l0,0h0L48.92,14.11a.19.19,0,0,0,.22-.21A.29.29,0,0,0,48.92,13.61Z"/><path class="cls-2" d="M48.89,13.61h0a.29.29,0,0,1,.22.28.2.2,0,0,1-.19.21h0L11.73,54.93h0l0,0a3.45,3.45,0,0,0,0-.43A3.94,3.94,0,0,0,10,51.18L9.75,51l-.21-.08L48.7,13.82a.2.2,0,0,1,.19-.21m0-.53a.71.71,0,0,0-.67.47l-39,37-.88.93,1.08,0,.14.05h0l.2.12,0,0,0,0a3.44,3.44,0,0,1,1.42,2.87,3,3,0,0,1,0,.37L11,56.34l1.11-1,0,0L49.19,14.6a.74.74,0,0,0,.48-.71.81.81,0,0,0-.67-.81Z"/><path class="cls-1" d="M28.29,25.95h0a7.12,7.12,0,0,0-3.24.8,2.64,2.64,0,0,1-1.24.35h-.1a1.91,1.91,0,0,0-1.52.85,2.92,2.92,0,0,0-.52,1.93h0a2.37,2.37,0,0,1-.18.73l-.1.29a5.41,5.41,0,0,0-.23,2.64,1.92,1.92,0,0,1-.17,1A13.53,13.53,0,0,0,20.18,39c0,.2,0,.4,0,.61l0,.29h0a3.17,3.17,0,0,0-.13.37c0,.07,0,.11,0,.13,0,.22.18.38.38.48a.53.53,0,0,0,.61-.09l2.29-2.17c.57-.53.9-.83,1-.9a2.48,2.48,0,0,1,1.22-.25h.1a.52.52,0,0,1,.48.48.77.77,0,0,1-.15.58c-.68.73-2.62,2.87-4.18,4.59l-1.32,1.45-.12.13-.37.4c-.15.17-.17.36-.18.87,0,.21,0,.41,0,.48h0c-.06.59-.13,1.19-.14,1.8v0c0,.71,0,.88,0,.91a7.75,7.75,0,0,0-.15,1.41c0,.72,0,1.3-.1,1.83a9,9,0,0,0,0,1.06c0,.23,0,.45,0,.67a5,5,0,0,0,.06.79,3.31,3.31,0,0,1,0,.67,13.94,13.94,0,0,0,.07,2.44c0,.29,0,.59.06.89a11.24,11.24,0,0,0,.21,1.91,2.21,2.21,0,0,0-.52.55,1.33,1.33,0,0,0-.11,1.47.81.81,0,0,1,0,.62,1.46,1.46,0,0,0,.46,1.41c.07.06.1.09.05.25A1.76,1.76,0,0,0,20,66.91a.84.84,0,0,0,.62.3.8.8,0,0,0,.41-.12h0a1.08,1.08,0,0,0,.32-.26.74.74,0,0,0,.11-.71.53.53,0,0,1,.11-.53,1.14,1.14,0,0,0,0-1.49l0,0a12.56,12.56,0,0,0,1.24.62,12.43,12.43,0,0,0,3.09.84,13.24,13.24,0,0,0,2,.13c.47,0,.94,0,1.4,0h.45A14.25,14.25,0,0,0,32,65.38,2.76,2.76,0,0,1,32,66a1.27,1.27,0,0,0,.31,1,1.47,1.47,0,0,0,1.06.52c.25.82.47,1.51.68,2.13a.53.53,0,0,0,.53.52h1.19a.53.53,0,0,0,.43-.85,6.63,6.63,0,0,1-.43-1.44c0-.18-.08-.36-.12-.54l0-.07a1.26,1.26,0,0,0-.37-1.48s0-.07,0-.09,0-.13,0-.2c0-.27,0-.54,0-.83s0-.69,0-1.05-.07-1-.09-1.46c0-.18,0-.37,0-.55a.76.76,0,0,0-.28-.57l-.21-.17-.31-.26c0-.31,0-.63,0-.93s0-.87,0-1.3a.89.89,0,0,0-.4-.75,13.45,13.45,0,0,0-2.24-1.22c-.08,0-.1-.06-.13-.17-.16-.62-.29-1.25-.41-1.84-.06-.29-.11-.59-.15-.81V53.5L30.86,53a1,1,0,0,0-.11-.31c0-.12,0-.4-.05-.6s0-.52-.05-.6a43.83,43.83,0,0,1-.31-6.71c0-.26,0-.52.05-.8s0-.3,0-.45l0,0a4,4,0,0,0,1.6-1.94c.07-.2.12-.4.18-.59a5.28,5.28,0,0,1,.2-.63,3.09,3.09,0,0,1,.92-1.22,3.81,3.81,0,0,0,1.39-2.12c0-.17.05-.33.07-.48s0-.31.07-.44a2.25,2.25,0,0,1,.26-.63,4.19,4.19,0,0,0,.71-2.76A2.3,2.3,0,0,0,35,31.33l-.54-.46a4.73,4.73,0,0,1-.36-.47,2.16,2.16,0,0,1-.24-.7c0-.1,0-.21-.08-.32s-.06-.65-.08-.91a3.58,3.58,0,0,0,0-.52A2.44,2.44,0,0,0,32,26.23,3.81,3.81,0,0,0,30.6,26h-.29l-.54,0-.72,0-.75,0Z"/><path class="cls-2" d="M35.72,69.58a10.72,10.72,0,0,1-.6-2.12.63.63,0,0,1,0-.36.74.74,0,0,0-.25-.91c-.21-.17-.14-.43-.16-.63,0-.62,0-1.25-.06-1.87s-.08-1.36-.11-2a.22.22,0,0,0-.08-.18c-.19-.15-.36-.31-.55-.46a.4.4,0,0,1-.17-.33c0-.76,0-1.52,0-2.29a.35.35,0,0,0-.17-.32,13.07,13.07,0,0,0-2.15-1.17.71.71,0,0,1-.43-.53c-.15-.62-.29-1.24-.41-1.86-.06-.28-.1-.55-.15-.83a0,0,0,0,1,0,0s0,0,0-.07l-.07-.46a1.53,1.53,0,0,0-.1-.24c0-.06-.09-1.1-.12-1.28a44.3,44.3,0,0,1-.31-6.79c0-.46.07-.92.1-1.38,0-.17.14-.24.25-.32a3.53,3.53,0,0,0,1.4-1.68c.14-.41.22-.84.38-1.24A3.61,3.61,0,0,1,33,38.77a3.28,3.28,0,0,0,1.21-1.82c.06-.31.07-.62.14-.94a2.73,2.73,0,0,1,.32-.78,3.65,3.65,0,0,0,.64-2.41,1.79,1.79,0,0,0-.65-1.09l-.53-.44a4.23,4.23,0,0,1-.47-.59,3.85,3.85,0,0,1-.38-1.17c-.07-.27-.1-1.32-.13-1.45a1.91,1.91,0,0,0-1.4-1.35,3.08,3.08,0,0,0-1.4-.23,20.31,20.31,0,0,1-2.07,0,6.55,6.55,0,0,0-3,.74,3.16,3.16,0,0,1-1.55.4,1.41,1.41,0,0,0-1.14.65,2.44,2.44,0,0,0-.41,1.62,4,4,0,0,1-.31,1.18,4.92,4.92,0,0,0-.21,2.38,2.44,2.44,0,0,1-.19,1.27A12.89,12.89,0,0,0,20.71,39c0,.31,0,.62,0,.92,0,0,0,.46,0,.49l2.29-2.17c.53-.49,1-.89,1.06-1A3.09,3.09,0,0,1,25.62,37a1.05,1.05,0,0,1,1,1,1.28,1.28,0,0,1-.29.95c-.9,1-4.08,4.47-5.5,6l-.12.13h0l-.37.4a8.2,8.2,0,0,0-.05,1c-.06.6-.13,1.19-.14,1.79,0,.1,0,.9,0,1A7.1,7.1,0,0,0,20,50.63c0,.63,0,1.25-.1,1.88s0,1.13,0,1.69.14,1,.1,1.48A13.55,13.55,0,0,0,20,58a18.17,18.17,0,0,0,.29,2.91.25.25,0,0,1-.14.31,1.59,1.59,0,0,0-.51.5.8.8,0,0,0-.08.9,1.34,1.34,0,0,1,.1,1,.93.93,0,0,0,.29.91.71.71,0,0,1,.21.79,1.24,1.24,0,0,0,.25,1.23c.12.13.22.17.36.09s.27-.15.2-.35a1.06,1.06,0,0,1,.19-1,.61.61,0,0,0,0-.83,1.73,1.73,0,0,0-.23-.22.79.79,0,0,1-.06-1.08c.09-.09.14,0,.19,0a17.55,17.55,0,0,0,1.91,1,12,12,0,0,0,3,.8,21.19,21.19,0,0,0,3.79.08,13.15,13.15,0,0,0,2.52-.29c.17,0,.23,0,.25.19a3.69,3.69,0,0,1,0,1.11.88.88,0,0,0,1,.9c.17,0,.23,0,.28.17.24.79.48,1.58.74,2.36a.32.32,0,0,1,0,.14h1.19A.32.32,0,0,1,35.72,69.58Z"/><path class="cls-3" d="M34.58,69.52c-.26-.78-.5-1.57-.74-2.36,0-.16-.1-.2-.28-.17a.88.88,0,0,1-1-.9,3.62,3.62,0,0,0,0-1.11c0-.18-.09-.23-.25-.19a13.27,13.27,0,0,1-2.52.29A21.28,21.28,0,0,1,26,65a12.07,12.07,0,0,1-3-.8,17.59,17.59,0,0,1-1.91-1c-.05,0-.11-.13-.19,0A.79.79,0,0,0,21,64.22a1.82,1.82,0,0,1,.23.22.61.61,0,0,1,0,.83,1.06,1.06,0,0,0-.19,1c.07.19-.07.27-.2.35a.24.24,0,0,1-.18,0c0,.16,0,.31,0,.47a9,9,0,0,1,1.94.29,10.24,10.24,0,0,1,1,.25,6.6,6.6,0,0,1,.8.36,3.27,3.27,0,0,0,1,.32,7.26,7.26,0,0,0,1.05.06,5.44,5.44,0,0,0,1-.11,3.68,3.68,0,0,1,.93-.09c.8.05,1.56.38,2.35.48a6.84,6.84,0,0,0,1.21.06,5.46,5.46,0,0,1,1,0,1.23,1.23,0,0,1,1,.57,1.2,1.2,0,0,0,.21.22,1.14,1.14,0,0,1,.16.11h.4A.32.32,0,0,0,34.58,69.52Z"/><path class="cls-3" d="M31.36,32.19a.54.54,0,0,0,0,.68,2,2,0,0,0,1.58.94c.56,0,.76-.33.53-.82-.05-.12-.09-.25,0-.35a.29.29,0,0,1,.39,0c.14.1.25.22.38.32s.2.17.3.07.06-.23,0-.35a1.65,1.65,0,0,0-.83-.82.5.5,0,0,0-.72.29c-.06.14-.11.22-.26.08a1.55,1.55,0,0,0-.61-.3A.74.74,0,0,0,31.36,32.19Z"/><path class="cls-3" d="M31.87,28.75c0-.06-.07-.11,0-.17a.18.18,0,0,1,.18,0l.34.11a.83.83,0,0,0-.47-.6,3.58,3.58,0,0,0-2.16-.36,3.2,3.2,0,0,0-1.29.29,9.74,9.74,0,0,1,3.61,1.35A2.1,2.1,0,0,0,31.87,28.75Z"/><path class="cls-3" d="M23.68,36.64c-.11-.11-.21,0-.29.1a1.7,1.7,0,0,0-.48.79l.83-.78A.23.23,0,0,0,23.68,36.64Z"/><path class="cls-3" d="M23.27,35.74a.55.55,0,0,0,.11-.29c0-.2,0-.41,0-.61s.08-.23.23-.22a1.55,1.55,0,0,1,.83.21,3.19,3.19,0,0,0,1.42.6,3.34,3.34,0,0,1,1.82.7,2.26,2.26,0,0,0,.49.3.45.45,0,0,0,.58-.1.49.49,0,0,0-.09-.63,4.58,4.58,0,0,0-1-.82,14.86,14.86,0,0,0-2-.9,1.89,1.89,0,0,1-.85-.6c-.11-.16-.2-.34-.08-.51s.32-.12.49-.08a15.6,15.6,0,0,1,3.16,1,2.16,2.16,0,0,1,1,.81.6.6,0,0,0,.65.3.69.69,0,0,0,.5-.59,1.13,1.13,0,0,0-.46-1.09,7.15,7.15,0,0,0-2.26-1.13A8.49,8.49,0,0,1,25.68,31a1.12,1.12,0,0,1-.29-.27.32.32,0,0,1,0-.33c.05-.11.15-.1.25-.1a1.35,1.35,0,0,1,.51.1c.84.35,1.68.7,2.54,1a7.45,7.45,0,0,0,1.55.39c.42,0,.65-.17.59-.58a1.6,1.6,0,0,0-1-1.19,7.77,7.77,0,0,0-4.11-.76,2.7,2.7,0,0,1-.84-.08.5.5,0,0,1-.38-.26.68.68,0,0,0-1-.3.72.72,0,0,0-.34,1,.57.57,0,0,1,0,.43,4.47,4.47,0,0,0-.06,2.85.41.41,0,0,1,0,.31A4.8,4.8,0,0,0,22.77,35a1.12,1.12,0,0,0,.21.73C23.09,35.89,23.18,35.88,23.27,35.74Z"/><path class="cls-3" d="M29.08,40a.41.41,0,0,0,.49-.25A1.33,1.33,0,0,0,29,38.33,1.87,1.87,0,0,1,29,39.57C28.87,39.77,28.87,39.93,29.08,40Z"/><path class="cls-3" d="M26,42.29a1,1,0,0,0,.95-.25,1.85,1.85,0,0,0,.62-1.53A3,3,0,0,0,27.1,39L27,38.91,24.8,41.37A1.62,1.62,0,0,0,26,42.29Z"/><path class="cls-3" d="M20.71,50.79c0,1,0,2,0,3,0,.57,0,1.15,0,1.72.05.85.1,1.7.19,2.55a14.14,14.14,0,0,0,.28,2,1.43,1.43,0,0,0,1.55,1.11,9.37,9.37,0,0,0,3.37-.8,9.85,9.85,0,0,0,2.77-1.88.52.52,0,0,0,.17-.63,3.9,3.9,0,0,1-.14-.54c-.38-1.59-.67-3.2-1-4.8-.18-1-.38-1.9-.58-2.85l-.2-1c-.29.68-.51,1.3-.72,1.93,0,.06,0,.17-.1.16s-.08-.1-.09-.17c-.09-.57-.18-1.13-.26-1.7-.2-1.59-.41-3.19-.72-4.77,0-.09,0-.18-.13-.23a5.18,5.18,0,0,1-1.45-.85c-.13-.1-.18,0-.19.07a2.36,2.36,0,0,0,0,.92c0,.05,0,.13,0,.16s-.13,0-.18-.08a3.63,3.63,0,0,1-.46-.69l-1.77,1.94c-.06.61-.1,1.22-.16,1.83C20.79,48.46,20.74,49.63,20.71,50.79Z"/><path class="cls-3" d="M21.9,62.53a6.34,6.34,0,0,0,3.59,1.07,8.24,8.24,0,0,0,4.33-1A5.27,5.27,0,0,0,31,61.67c.05-.05.14-.11.11-.2s-.13,0-.19,0H29.53c-.45,0-.45,0-.33-.45,0-.09.07-.24,0-.27s-.16.06-.24.1l-.14.08a18.43,18.43,0,0,1-3.45,1.26,8.35,8.35,0,0,1-2.9.29c-.22,0-.45,0-.68,0C21.82,62.49,21.87,62.5,21.9,62.53Z"/><path class="cls-3" d="M32.31,58.49c-.34.48-.75.91-1.13,1.36l1.32-.68c.53-.28.53-.31,0-.69C32.45,58.41,32.39,58.38,32.31,58.49Z"/></svg>